%FSTAX23Y23*%
%MOIN*%
%SFA1B1*%

%IPPOS*%
%ADD10C,0.010000*%
%ADD18C,0.007874*%
%ADD19C,0.023622*%
%ADD20C,0.009843*%
%LNlpf-1*%
%LPD*%
G54D10*
X06525Y06151D02*
Y06348D01*
Y06151D02*
X06624D01*
X06673D02*
Y06348D01*
X06771*
Y0625D02*
Y06348D01*
X06673Y0625D02*
X06771D01*
X0682D02*
X06919D01*
X0682Y06151D02*
Y06348D01*
X06919*
X06742Y06988D02*
X0684D01*
X06742Y07086D02*
X0684D01*
X06742Y07185D02*
X0684D01*
X06742Y07283D02*
X0684D01*
X06742Y07381D02*
X0684D01*
X06299Y06988D02*
X06397D01*
X06299Y07086D02*
X06397D01*
X06299Y07185D02*
X06397D01*
X06299Y07283D02*
X06397D01*
X06299Y07381D02*
X06397D01*
X05807Y06988D02*
X05905D01*
X05807Y07086D02*
X05905D01*
X05807Y07185D02*
X05905D01*
X05807Y07283D02*
X05905D01*
X05807Y07381D02*
X05905D01*
X05364Y06988D02*
X05462D01*
X05364Y07086D02*
X05462D01*
X05364Y07185D02*
X05462D01*
X05364Y07283D02*
X05462D01*
X05364Y07381D02*
X05462D01*
X06947Y07027D02*
X06987D01*
X07007Y07047*
X06987Y07067*
X06947*
X07007Y07087D02*
Y07107D01*
Y07097*
X06967*
Y07087*
X06957Y07147D02*
X06967D01*
Y07137*
Y07157*
Y07147*
X06997*
X07007Y07157*
X06967Y07197D02*
Y07217D01*
X06977Y07227*
X07007*
Y07197*
X06997Y07187*
X06987Y07197*
Y07227*
X06417Y06269D02*
Y06329D01*
X06387Y06299*
X06427*
X06289Y06319D02*
X06299Y06329D01*
X06319*
X06329Y06319*
Y06309*
X06319Y06299*
X06309*
X06319*
X06329Y06289*
Y06279*
X06319Y06269*
X06299*
X06289Y06279*
X0619Y06299D02*
X0623D01*
X06122Y06319D02*
X06112Y06329D01*
X06092*
X06082Y06319*
Y06279*
X06092Y06269*
X06112*
X06122Y06279*
Y06299*
X06102*
X05984D02*
X06024D01*
X06004Y06319D02*
Y06279D01*
X05925Y06269D02*
X05885D01*
X05925Y06309*
Y06319*
X05915Y06329*
X05895*
X05885Y06319*
X0684Y06211D02*
X0688D01*
X0684Y06171*
X0688*
X06692Y06231D02*
Y06171D01*
Y06191*
X06732Y06231*
X06702Y06201*
X06732Y06171*
X06752Y06231D02*
Y06171D01*
Y06201*
X06792*
Y06231*
Y06171*
X06585D02*
X06545D01*
X06585Y06211*
Y06221*
X06575Y06231*
X06555*
X06545Y06221*
X06605D02*
X06615Y06231D01*
X06635*
X06645Y06221*
Y06181*
X06635Y06171*
X06615*
X06605Y06181*
Y06221*
X05511Y06231D02*
X05531D01*
X05521*
Y06171*
X05511*
X05531*
X05561D02*
Y06231D01*
X05601Y06171*
Y06231*
X05621Y06201D02*
X05661D01*
X05681Y06171D02*
X05711Y06201D01*
X05681Y06231*
X06604Y07913D02*
Y07973D01*
X06634*
X06644Y07963*
Y07943*
X06634Y07933*
X06604*
X06624D02*
X06644Y07913D01*
X06664D02*
X06684D01*
X06674*
Y07973*
X06664Y07963*
X06714Y07933D02*
X06754D01*
X06714Y07953D02*
X06754D01*
X06774Y07913D02*
X06794D01*
X06784*
Y07973*
X06774Y07963*
X06824Y07973D02*
Y07913D01*
Y07933*
X06864Y07973*
X06834Y07943*
X06864Y07913*
X06594Y07834D02*
Y07894D01*
X06624*
X06634Y07884*
Y07864*
X06624Y07854*
X06594*
X06614D02*
X06634Y07834D01*
X06694D02*
X06654D01*
X06694Y07874*
Y07884*
X06684Y07894*
X06664*
X06654Y07884*
X06714Y07854D02*
X06754D01*
X06714Y07874D02*
X06754D01*
X06814Y07834D02*
X06774D01*
X06814Y07874*
Y07884*
X06804Y07894*
X06784*
X06774Y07884*
X06834D02*
X06844Y07894D01*
X06864*
X06874Y07884*
Y07844*
X06864Y07834*
X06844*
X06834Y07844*
Y07884*
X06894D02*
X06904Y07894D01*
X06924*
X06934Y07884*
Y07844*
X06924Y07834*
X06904*
X06894Y07844*
Y07884*
X06594Y07755D02*
Y07815D01*
X06624*
X06634Y07805*
Y07785*
X06624Y07775*
X06594*
X06614D02*
X06634Y07755D01*
X06654Y07805D02*
X06664Y07815D01*
X06684*
X06694Y07805*
Y07795*
X06684Y07785*
X06674*
X06684*
X06694Y07775*
Y07765*
X06684Y07755*
X06664*
X06654Y07765*
X06714Y07775D02*
X06754D01*
X06714Y07795D02*
X06754D01*
X06814Y07755D02*
X06774D01*
X06814Y07795*
Y07805*
X06804Y07815*
X06784*
X06774Y07805*
X06834Y07815D02*
Y07755D01*
Y07775*
X06874Y07815*
X06844Y07785*
X06874Y07755*
X06594Y07677D02*
Y07737D01*
X06624*
X06634Y07727*
Y07707*
X06624Y07697*
X06594*
X06614D02*
X06634Y07677D01*
X06684D02*
Y07737D01*
X06654Y07707*
X06694*
X06714Y07697D02*
X06754D01*
X06714Y07717D02*
X06754D01*
X06814Y07737D02*
X06774D01*
Y07707*
X06794Y07717*
X06804*
X06814Y07707*
Y07687*
X06804Y07677*
X06784*
X06774Y07687*
X06834Y07677D02*
X06854D01*
X06844*
Y07737*
X06834Y07727*
X06884D02*
X06894Y07737D01*
X06914*
X06924Y07727*
Y07687*
X06914Y07677*
X06894*
X06884Y07687*
Y07727*
X06594Y07598D02*
Y07658D01*
X06624*
X06634Y07648*
Y07628*
X06624Y07618*
X06594*
X06614D02*
X06634Y07598D01*
X06694Y07658D02*
X06654D01*
Y07628*
X06674Y07638*
X06684*
X06694Y07628*
Y07608*
X06684Y07598*
X06664*
X06654Y07608*
X06714Y07618D02*
X06754D01*
X06714Y07638D02*
X06754D01*
X06814Y07598D02*
X06774D01*
X06814Y07638*
Y07648*
X06804Y07658*
X06784*
X06774Y07648*
X06834Y07658D02*
Y07598D01*
Y07618*
X06874Y07658*
X06844Y07628*
X06874Y07598*
X06594Y07519D02*
Y07579D01*
X06624*
X06634Y07569*
Y07549*
X06624Y07539*
X06594*
X06614D02*
X06634Y07519D01*
X06694Y07579D02*
X06674Y07569D01*
X06654Y07549*
Y07529*
X06664Y07519*
X06684*
X06694Y07529*
Y07539*
X06684Y07549*
X06654*
X06714Y07539D02*
X06754D01*
X06714Y07559D02*
X06754D01*
X06814Y07579D02*
X06774D01*
Y07549*
X06794Y07559*
X06804*
X06814Y07549*
Y07529*
X06804Y07519*
X06784*
X06774Y07529*
X06834Y07519D02*
X06854D01*
X06844*
Y07579*
X06834Y07569*
X06884D02*
X06894Y07579D01*
X06914*
X06924Y07569*
Y07529*
X06914Y07519*
X06894*
X06884Y07529*
Y07569*
X05286Y07559D02*
X05276Y07569D01*
X05256*
X05246Y07559*
Y07519*
X05256Y07509*
X05276*
X05286Y07519*
X05346Y07569D02*
X05306D01*
Y07539*
X05326Y07549*
X05336*
X05346Y07539*
Y07519*
X05336Y07509*
X05316*
X05306Y07519*
X05366Y07529D02*
X05406D01*
X05366Y07549D02*
X05406D01*
X05426Y07509D02*
X05446D01*
X05436*
Y07569*
X05426Y07559*
X05475D02*
X05485Y07569D01*
X05505*
X05515Y07559*
Y07519*
X05505Y07509*
X05485*
X05475Y07519*
Y07559*
X05575Y07509D02*
X05535D01*
X05575Y07549*
Y07559*
X05565Y07569*
X05545*
X05535Y07559*
X05286Y07638D02*
X05276Y07648D01*
X05256*
X05246Y07638*
Y07598*
X05256Y07588*
X05276*
X05286Y07598*
X05336Y07588D02*
Y07648D01*
X05306Y07618*
X05346*
X05366Y07608D02*
X05406D01*
X05366Y07628D02*
X05406D01*
X05465Y07648D02*
X05446Y07638D01*
X05426Y07618*
Y07598*
X05436Y07588*
X05455*
X05465Y07598*
Y07608*
X05455Y07618*
X05426*
X05485Y07638D02*
X05495Y07648D01*
X05515*
X05525Y07638*
Y07628*
X05515Y07618*
X05525Y07608*
Y07598*
X05515Y07588*
X05495*
X05485Y07598*
Y07608*
X05495Y07618*
X05485Y07628*
Y07638*
X05495Y07618D02*
X05515D01*
X05585Y07588D02*
X05545D01*
X05585Y07628*
Y07638*
X05575Y07648*
X05555*
X05545Y07638*
X05286Y07717D02*
X05276Y07727D01*
X05256*
X05246Y07717*
Y07677*
X05256Y07667*
X05276*
X05286Y07677*
X05306Y07717D02*
X05316Y07727D01*
X05336*
X05346Y07717*
Y07707*
X05336Y07697*
X05326*
X05336*
X05346Y07687*
Y07677*
X05336Y07667*
X05316*
X05306Y07677*
X05366Y07687D02*
X05406D01*
X05366Y07707D02*
X05406D01*
X05426Y07667D02*
X05446D01*
X05436*
Y07727*
X05426Y07717*
X05475D02*
X05485Y07727D01*
X05505*
X05515Y07717*
Y07677*
X05505Y07667*
X05485*
X05475Y07677*
Y07717*
X05575Y07667D02*
X05535D01*
X05575Y07707*
Y07717*
X05565Y07727*
X05545*
X05535Y07717*
X05286Y07796D02*
X05276Y07806D01*
X05256*
X05246Y07796*
Y07756*
X05256Y07746*
X05276*
X05286Y07756*
X05346Y07746D02*
X05306D01*
X05346Y07786*
Y07796*
X05336Y07806*
X05316*
X05306Y07796*
X05366Y07766D02*
X05406D01*
X05366Y07786D02*
X05406D01*
X05465Y07806D02*
X05446Y07796D01*
X05426Y07776*
Y07756*
X05436Y07746*
X05455*
X05465Y07756*
Y07766*
X05455Y07776*
X05426*
X05485Y07796D02*
X05495Y07806D01*
X05515*
X05525Y07796*
Y07786*
X05515Y07776*
X05525Y07766*
Y07756*
X05515Y07746*
X05495*
X05485Y07756*
Y07766*
X05495Y07776*
X05485Y07786*
Y07796*
X05495Y07776D02*
X05515D01*
X05585Y07746D02*
X05545D01*
X05585Y07786*
Y07796*
X05575Y07806*
X05555*
X05545Y07796*
X05295Y07874D02*
X05285Y07884D01*
X05265*
X05255Y07874*
Y07834*
X05265Y07824*
X05285*
X05295Y07834*
X05315Y07824D02*
X05335D01*
X05325*
Y07884*
X05315Y07874*
X05365Y07844D02*
X05405D01*
X05365Y07864D02*
X05405D01*
X05425Y07824D02*
X05445D01*
X05435*
Y07884*
X05425Y07874*
X05475D02*
X05485Y07884D01*
X05505*
X05515Y07874*
Y07834*
X05505Y07824*
X05485*
X05475Y07834*
Y07874*
X05575Y07824D02*
X05535D01*
X05575Y07864*
Y07874*
X05565Y07884*
X05545*
X05535Y07874*
X06565Y07402D02*
X06555Y07412D01*
X06535*
X06525Y07402*
Y07362*
X06535Y07352*
X06555*
X06565Y07362*
X06625Y07412D02*
X06585D01*
Y07382*
X06605Y07392*
X06615*
X06625Y07382*
Y07362*
X06615Y07352*
X06595*
X06585Y07362*
X06565Y07303D02*
X06555Y07313D01*
X06535*
X06525Y07303*
Y07263*
X06535Y07253*
X06555*
X06565Y07263*
X06615Y07253D02*
Y07313D01*
X06585Y07283*
X06625*
X06565Y07205D02*
X06555Y07215D01*
X06535*
X06525Y07205*
Y07165*
X06535Y07155*
X06555*
X06565Y07165*
X06585Y07205D02*
X06595Y07215D01*
X06615*
X06625Y07205*
Y07195*
X06615Y07185*
X06605*
X06615*
X06625Y07175*
Y07165*
X06615Y07155*
X06595*
X06585Y07165*
X06565Y07107D02*
X06555Y07117D01*
X06535*
X06525Y07107*
Y07067*
X06535Y07057*
X06555*
X06565Y07067*
X06625Y07057D02*
X06585D01*
X06625Y07097*
Y07107*
X06615Y07117*
X06595*
X06585Y07107*
X06565Y07008D02*
X06555Y07018D01*
X06535*
X06525Y07008*
Y06968*
X06535Y06958*
X06555*
X06565Y06968*
X06585Y06958D02*
X06605D01*
X06595*
Y07018*
X06585Y07008*
X06122Y07402D02*
X06112Y07412D01*
X06092*
X06082Y07402*
Y07362*
X06092Y07352*
X06112*
X06122Y07362*
X06182Y07412D02*
X06142D01*
Y07382*
X06162Y07392*
X06172*
X06182Y07382*
Y07362*
X06172Y07352*
X06152*
X06142Y07362*
X06122Y07303D02*
X06112Y07313D01*
X06092*
X06082Y07303*
Y07263*
X06092Y07253*
X06112*
X06122Y07263*
X06172Y07253D02*
Y07313D01*
X06142Y07283*
X06182*
X06122Y07205D02*
X06112Y07215D01*
X06092*
X06082Y07205*
Y07165*
X06092Y07155*
X06112*
X06122Y07165*
X06142Y07205D02*
X06152Y07215D01*
X06172*
X06182Y07205*
Y07195*
X06172Y07185*
X06162*
X06172*
X06182Y07175*
Y07165*
X06172Y07155*
X06152*
X06142Y07165*
X06122Y07107D02*
X06112Y07117D01*
X06092*
X06082Y07107*
Y07067*
X06092Y07057*
X06112*
X06122Y07067*
X06182Y07057D02*
X06142D01*
X06182Y07097*
Y07107*
X06172Y07117*
X06152*
X06142Y07107*
X06122Y07008D02*
X06112Y07018D01*
X06092*
X06082Y07008*
Y06968*
X06092Y06958*
X06112*
X06122Y06968*
X06142Y06958D02*
X06162D01*
X06152*
Y07018*
X06142Y07008*
X0563Y07402D02*
X0562Y07412D01*
X056*
X0559Y07402*
Y07362*
X056Y07352*
X0562*
X0563Y07362*
X0569Y07412D02*
X0565D01*
Y07382*
X0567Y07392*
X0568*
X0569Y07382*
Y07362*
X0568Y07352*
X0566*
X0565Y07362*
X0563Y07303D02*
X0562Y07313D01*
X056*
X0559Y07303*
Y07263*
X056Y07253*
X0562*
X0563Y07263*
X0568Y07253D02*
Y07313D01*
X0565Y07283*
X0569*
X0563Y07205D02*
X0562Y07215D01*
X056*
X0559Y07205*
Y07165*
X056Y07155*
X0562*
X0563Y07165*
X0565Y07205D02*
X0566Y07215D01*
X0568*
X0569Y07205*
Y07195*
X0568Y07185*
X0567*
X0568*
X0569Y07175*
Y07165*
X0568Y07155*
X0566*
X0565Y07165*
X0563Y07107D02*
X0562Y07117D01*
X056*
X0559Y07107*
Y07067*
X056Y07057*
X0562*
X0563Y07067*
X0569Y07057D02*
X0565D01*
X0569Y07097*
Y07107*
X0568Y07117*
X0566*
X0565Y07107*
X0563Y07008D02*
X0562Y07018D01*
X056*
X0559Y07008*
Y06968*
X056Y06958*
X0562*
X0563Y06968*
X0565Y06958D02*
X0567D01*
X0566*
Y07018*
X0565Y07008*
X05467Y08D02*
X05447D01*
X05437Y0799*
Y0795*
X05447Y0794*
X05467*
X05476Y0795*
Y0799*
X05467Y08*
X05496D02*
Y0795D01*
X05506Y0794*
X05526*
X05536Y0795*
Y08*
X05556D02*
X05596D01*
X05576*
Y0794*
X05616Y0797D02*
X05656D01*
X05676Y0794D02*
X05706Y0797D01*
X05676Y08*
X05197Y07402D02*
X05187Y07412D01*
X05167*
X05157Y07402*
Y07362*
X05167Y07352*
X05187*
X05197Y07362*
X05257Y07412D02*
X05217D01*
Y07382*
X05237Y07392*
X05247*
X05257Y07382*
Y07362*
X05247Y07352*
X05227*
X05217Y07362*
X05197Y07303D02*
X05187Y07313D01*
X05167*
X05157Y07303*
Y07263*
X05167Y07253*
X05187*
X05197Y07263*
X05247Y07253D02*
Y07313D01*
X05217Y07283*
X05257*
X05197Y07205D02*
X05187Y07215D01*
X05167*
X05157Y07205*
Y07165*
X05167Y07155*
X05187*
X05197Y07165*
X05217Y07205D02*
X05227Y07215D01*
X05247*
X05257Y07205*
Y07195*
X05247Y07185*
X05237*
X05247*
X05257Y07175*
Y07165*
X05247Y07155*
X05227*
X05217Y07165*
X05197Y07107D02*
X05187Y07117D01*
X05167*
X05157Y07107*
Y07067*
X05167Y07057*
X05187*
X05197Y07067*
X05257Y07057D02*
X05217D01*
X05257Y07097*
Y07107*
X05247Y07117*
X05227*
X05217Y07107*
X05197Y07008D02*
X05187Y07018D01*
X05167*
X05157Y07008*
Y06968*
X05167Y06958*
X05187*
X05197Y06968*
X05217Y06958D02*
X05237D01*
X05227*
Y07018*
X05217Y07008*
X06712Y0686D02*
Y0692D01*
X06742*
X06752Y0691*
Y0689*
X06742Y0688*
X06712*
X06732D02*
X06752Y0686D01*
X06772Y0691D02*
X06782Y0692D01*
X06802*
X06812Y0691*
Y069*
X06802Y0689*
X06792*
X06802*
X06812Y0688*
Y0687*
X06802Y0686*
X06782*
X06772Y0687*
X06872Y0692D02*
X06852Y0691D01*
X06832Y0689*
Y0687*
X06842Y0686*
X06862*
X06872Y0687*
Y0688*
X06862Y0689*
X06832*
X06279Y0686D02*
Y0692D01*
X06309*
X06319Y0691*
Y0689*
X06309Y0688*
X06279*
X06299D02*
X06319Y0686D01*
X06379D02*
X06339D01*
X06379Y069*
Y0691*
X06369Y0692*
X06349*
X06339Y0691*
X06439Y0692D02*
X06419Y0691D01*
X06399Y0689*
Y0687*
X06409Y0686*
X06429*
X06439Y0687*
Y0688*
X06429Y0689*
X06399*
X05777Y0686D02*
Y0692D01*
X05807*
X05817Y0691*
Y0689*
X05807Y0688*
X05777*
X05797D02*
X05817Y0686D01*
X05837D02*
X05857D01*
X05847*
Y0692*
X05837Y0691*
X05927Y0692D02*
X05907Y0691D01*
X05887Y0689*
Y0687*
X05897Y0686*
X05917*
X05927Y0687*
Y0688*
X05917Y0689*
X05887*
X05334Y0686D02*
Y0692D01*
X05364*
X05374Y0691*
Y0689*
X05364Y0688*
X05334*
X05354D02*
X05374Y0686D01*
X05424D02*
Y0692D01*
X05394Y0689*
X05434*
X05494Y0692D02*
X05474Y0691D01*
X05454Y0689*
Y0687*
X05464Y0686*
X05484*
X05494Y0687*
Y0688*
X05484Y0689*
X05454*
X05797Y06269D02*
X05817D01*
X05807*
Y06329*
X05797Y06319*
X05334Y06761D02*
Y06821D01*
X05364*
X05374Y06811*
Y06791*
X05364Y06781*
X05334*
X05354D02*
X05374Y06761D01*
X05424D02*
Y06821D01*
X05394Y06791*
X05434*
X05494Y06821D02*
X05454D01*
Y06791*
X05474Y06801*
X05484*
X05494Y06791*
Y06771*
X05484Y06761*
X05464*
X05454Y06771*
X05777Y06466D02*
Y06526D01*
X05807*
X05817Y06516*
Y06496*
X05807Y06486*
X05777*
X05797D02*
X05817Y06466D01*
X05837D02*
X05857D01*
X05847*
Y06526*
X05837Y06516*
X05927Y06466D02*
X05887D01*
X05927Y06506*
Y06516*
X05917Y06526*
X05897*
X05887Y06516*
X05777Y06564D02*
Y06624D01*
X05807*
X05817Y06614*
Y06594*
X05807Y06584*
X05777*
X05797D02*
X05817Y06564D01*
X05837D02*
X05857D01*
X05847*
Y06624*
X05837Y06614*
X05887D02*
X05897Y06624D01*
X05917*
X05927Y06614*
Y06604*
X05917Y06594*
X05907*
X05917*
X05927Y06584*
Y06574*
X05917Y06564*
X05897*
X05887Y06574*
X05777Y06663D02*
Y06723D01*
X05807*
X05817Y06713*
Y06693*
X05807Y06683*
X05777*
X05797D02*
X05817Y06663D01*
X05837D02*
X05857D01*
X05847*
Y06723*
X05837Y06713*
X05917Y06663D02*
Y06723D01*
X05887Y06693*
X05927*
X05777Y06761D02*
Y06821D01*
X05807*
X05817Y06811*
Y06791*
X05807Y06781*
X05777*
X05797D02*
X05817Y06761D01*
X05837D02*
X05857D01*
X05847*
Y06821*
X05837Y06811*
X05927Y06821D02*
X05887D01*
Y06791*
X05907Y06801*
X05917*
X05927Y06791*
Y06771*
X05917Y06761*
X05897*
X05887Y06771*
X06279Y06368D02*
Y06428D01*
X06309*
X06319Y06418*
Y06398*
X06309Y06388*
X06279*
X06299D02*
X06319Y06368D01*
X06379D02*
X06339D01*
X06379Y06408*
Y06418*
X06369Y06428*
X06349*
X06339Y06418*
X06399Y06368D02*
X06419D01*
X06409*
Y06428*
X06399Y06418*
X06279Y06466D02*
Y06526D01*
X06309*
X06319Y06516*
Y06496*
X06309Y06486*
X06279*
X06299D02*
X06319Y06466D01*
X06379D02*
X06339D01*
X06379Y06506*
Y06516*
X06369Y06526*
X06349*
X06339Y06516*
X06439Y06466D02*
X06399D01*
X06439Y06506*
Y06516*
X06429Y06526*
X06409*
X06399Y06516*
X06279Y06564D02*
Y06624D01*
X06309*
X06319Y06614*
Y06594*
X06309Y06584*
X06279*
X06299D02*
X06319Y06564D01*
X06379D02*
X06339D01*
X06379Y06604*
Y06614*
X06369Y06624*
X06349*
X06339Y06614*
X06399D02*
X06409Y06624D01*
X06429*
X06439Y06614*
Y06604*
X06429Y06594*
X06419*
X06429*
X06439Y06584*
Y06574*
X06429Y06564*
X06409*
X06399Y06574*
X06279Y06663D02*
Y06723D01*
X06309*
X06319Y06713*
Y06693*
X06309Y06683*
X06279*
X06299D02*
X06319Y06663D01*
X06379D02*
X06339D01*
X06379Y06703*
Y06713*
X06369Y06723*
X06349*
X06339Y06713*
X06429Y06663D02*
Y06723D01*
X06399Y06693*
X06439*
X06279Y06761D02*
Y06821D01*
X06309*
X06319Y06811*
Y06791*
X06309Y06781*
X06279*
X06299D02*
X06319Y06761D01*
X06379D02*
X06339D01*
X06379Y06801*
Y06811*
X06369Y06821*
X06349*
X06339Y06811*
X06439Y06821D02*
X06399D01*
Y06791*
X06419Y06801*
X06429*
X06439Y06791*
Y06771*
X06429Y06761*
X06409*
X06399Y06771*
X06712Y06368D02*
Y06428D01*
X06742*
X06752Y06418*
Y06398*
X06742Y06388*
X06712*
X06732D02*
X06752Y06368D01*
X06772Y06418D02*
X06782Y06428D01*
X06802*
X06812Y06418*
Y06408*
X06802Y06398*
X06792*
X06802*
X06812Y06388*
Y06378*
X06802Y06368*
X06782*
X06772Y06378*
X06832Y06368D02*
X06852D01*
X06842*
Y06428*
X06832Y06418*
X06712Y06466D02*
Y06526D01*
X06742*
X06752Y06516*
Y06496*
X06742Y06486*
X06712*
X06732D02*
X06752Y06466D01*
X06772Y06516D02*
X06782Y06526D01*
X06802*
X06812Y06516*
Y06506*
X06802Y06496*
X06792*
X06802*
X06812Y06486*
Y06476*
X06802Y06466*
X06782*
X06772Y06476*
X06872Y06466D02*
X06832D01*
X06872Y06506*
Y06516*
X06862Y06526*
X06842*
X06832Y06516*
X06712Y06564D02*
Y06624D01*
X06742*
X06752Y06614*
Y06594*
X06742Y06584*
X06712*
X06732D02*
X06752Y06564D01*
X06772Y06614D02*
X06782Y06624D01*
X06802*
X06812Y06614*
Y06604*
X06802Y06594*
X06792*
X06802*
X06812Y06584*
Y06574*
X06802Y06564*
X06782*
X06772Y06574*
X06832Y06614D02*
X06842Y06624D01*
X06862*
X06872Y06614*
Y06604*
X06862Y06594*
X06852*
X06862*
X06872Y06584*
Y06574*
X06862Y06564*
X06842*
X06832Y06574*
X06712Y06663D02*
Y06723D01*
X06742*
X06752Y06713*
Y06693*
X06742Y06683*
X06712*
X06732D02*
X06752Y06663D01*
X06772Y06713D02*
X06782Y06723D01*
X06802*
X06812Y06713*
Y06703*
X06802Y06693*
X06792*
X06802*
X06812Y06683*
Y06673*
X06802Y06663*
X06782*
X06772Y06673*
X06862Y06663D02*
Y06723D01*
X06832Y06693*
X06872*
X06712Y06761D02*
Y06821D01*
X06742*
X06752Y06811*
Y06791*
X06742Y06781*
X06712*
X06732D02*
X06752Y06761D01*
X06772Y06811D02*
X06782Y06821D01*
X06802*
X06812Y06811*
Y06801*
X06802Y06791*
X06792*
X06802*
X06812Y06781*
Y06771*
X06802Y06761*
X06782*
X06772Y06771*
X06872Y06821D02*
X06832D01*
Y06791*
X06852Y06801*
X06862*
X06872Y06791*
Y06771*
X06862Y06761*
X06842*
X06832Y06771*
X05334Y06368D02*
Y06428D01*
X05364*
X05374Y06418*
Y06398*
X05364Y06388*
X05334*
X05354D02*
X05374Y06368D01*
X05424D02*
Y06428D01*
X05394Y06398*
X05434*
X05454Y06368D02*
X05474D01*
X05464*
Y06428*
X05454Y06418*
X05334Y06466D02*
Y06526D01*
X05364*
X05374Y06516*
Y06496*
X05364Y06486*
X05334*
X05354D02*
X05374Y06466D01*
X05424D02*
Y06526D01*
X05394Y06496*
X05434*
X05494Y06466D02*
X05454D01*
X05494Y06506*
Y06516*
X05484Y06526*
X05464*
X05454Y06516*
X05334Y06564D02*
Y06624D01*
X05364*
X05374Y06614*
Y06594*
X05364Y06584*
X05334*
X05354D02*
X05374Y06564D01*
X05424D02*
Y06624D01*
X05394Y06594*
X05434*
X05454Y06614D02*
X05464Y06624D01*
X05484*
X05494Y06614*
Y06604*
X05484Y06594*
X05474*
X05484*
X05494Y06584*
Y06574*
X05484Y06564*
X05464*
X05454Y06574*
X05334Y06653D02*
Y06713D01*
X05364*
X05374Y06703*
Y06683*
X05364Y06673*
X05334*
X05354D02*
X05374Y06653D01*
X05424D02*
Y06713D01*
X05394Y06683*
X05434*
X05484Y06653D02*
Y06713D01*
X05454Y06683*
X05494*
X06062Y07717D02*
Y07667D01*
X06072Y07657*
X06092*
X06102Y07667*
Y07717*
X06122Y07657D02*
X06142D01*
X06132*
Y07717*
X06122Y07707*
X05777Y06368D02*
Y06428D01*
X05807*
X05817Y06418*
Y06398*
X05807Y06388*
X05777*
X05797D02*
X05817Y06368D01*
X05837D02*
X05857D01*
X05847*
Y06428*
X05837Y06418*
X05887Y06368D02*
X05907D01*
X05897*
Y06428*
X05887Y06418*
G54D18*
X06719Y07349D02*
D01*
X06722Y07344*
X06724Y07339*
X06728Y07334*
X06731Y0733*
X06735Y07326*
X06739Y07322*
X06743Y07319*
X06747Y07316*
X06752Y07313*
X06757Y0731*
X06762Y07308*
X06767Y07306*
X06773Y07305*
X06778Y07304*
X06783Y07303*
X06789Y07303*
X06794Y07303*
X068Y07303*
X06805Y07304*
X06811Y07305*
X06816Y07307*
X06821Y07309*
X06826Y07311*
X06831Y07314*
X06836Y07317*
X0684Y0732*
X06844Y07323*
X06848Y07327*
X06852Y07331*
X06855Y07336*
X06857Y07339*
Y07424D02*
D01*
X06854Y07428*
X06851Y07433*
X06847Y07437*
X06843Y0744*
X06839Y07444*
X06834Y07447*
X0683Y0745*
X06825Y07452*
X0682Y07455*
X06814Y07456*
X06809Y07458*
X06804Y07459*
X06798Y0746*
X06793Y0746*
X06787Y0746*
X06782Y0746*
X06776Y07459*
X06771Y07458*
X06766Y07456*
X06761Y07454*
X06756Y07452*
X06751Y07449*
X06746Y07446*
X06742Y07443*
X06738Y07439*
X06734Y07436*
X0673Y07431*
X06727Y07427*
X06724Y07423*
X06721Y07418*
X06719Y07414*
X06862Y07316D02*
D01*
X0686Y07321*
X06857Y07325*
X06854Y0733*
X06851Y07334*
X06847Y07338*
X06843Y07342*
X06839Y07345*
X06834Y07349*
X0683Y07352*
X06825Y07354*
X0682Y07356*
X06814Y07358*
X06809Y0736*
X06804Y07361*
X06798Y07361*
X06793Y07362*
X06787Y07362*
X06782Y07361*
X06776Y0736*
X06771Y07359*
X06766Y07358*
X06761Y07356*
X06756Y07353*
X06751Y07351*
X06746Y07348*
X06742Y07345*
X06738Y07341*
X06734Y07337*
X0673Y07333*
X06727Y07329*
X06724Y07325*
Y07241D02*
D01*
X06728Y07236*
X06731Y07232*
X06735Y07228*
X06739Y07224*
X06743Y0722*
X06747Y07217*
X06752Y07214*
X06757Y07212*
X06762Y0721*
X06767Y07208*
X06772Y07206*
X06778Y07205*
X06783Y07205*
X06789Y07204*
X06794Y07204*
X068Y07205*
X06805Y07206*
X06811Y07207*
X06816Y07208*
X06821Y0721*
X06826Y07213*
X06831Y07215*
X06835Y07218*
X0684Y07221*
X06844Y07225*
X06848Y07229*
X06852Y07233*
X06855Y07237*
X06858Y07242*
X06861Y07247*
X06862Y0725*
Y07217D02*
D01*
X0686Y07222*
X06857Y07227*
X06854Y07231*
X06851Y07236*
X06847Y0724*
X06843Y07244*
X06839Y07247*
X06834Y0725*
X0683Y07253*
X06825Y07256*
X0682Y07258*
X06814Y0726*
X06809Y07261*
X06804Y07262*
X06798Y07263*
X06793Y07263*
X06787Y07263*
X06782Y07263*
X06776Y07262*
X06771Y07261*
X06766Y07259*
X06761Y07257*
X06756Y07255*
X06751Y07252*
X06746Y07249*
X06742Y07246*
X06738Y07243*
X06734Y07239*
X0673Y07235*
X06727Y0723*
X06724Y07227*
Y07142D02*
D01*
X06728Y07138*
X06731Y07133*
X06735Y07129*
X06739Y07126*
X06743Y07122*
X06747Y07119*
X06752Y07116*
X06757Y07113*
X06762Y07111*
X06767Y07109*
X06772Y07108*
X06778Y07107*
X06783Y07106*
X06789Y07106*
X06794Y07106*
X068Y07106*
X06805Y07107*
X06811Y07108*
X06816Y0711*
X06821Y07112*
X06826Y07114*
X06831Y07117*
X06835Y0712*
X0684Y07123*
X06844Y07126*
X06848Y0713*
X06852Y07134*
X06855Y07139*
X06858Y07143*
X06861Y07148*
X06862Y07152*
Y07119D02*
D01*
X0686Y07124*
X06857Y07129*
X06854Y07133*
X06851Y07137*
X06847Y07141*
X06843Y07145*
X06839Y07149*
X06834Y07152*
X0683Y07155*
X06825Y07157*
X0682Y07159*
X06814Y07161*
X06809Y07163*
X06804Y07164*
X06798Y07165*
X06793Y07165*
X06787Y07165*
X06782Y07164*
X06776Y07164*
X06771Y07162*
X06766Y07161*
X06761Y07159*
X06756Y07157*
X06751Y07154*
X06746Y07151*
X06742Y07148*
X06738Y07144*
X06734Y0714*
X0673Y07136*
X06727Y07132*
X06724Y07128*
Y07044D02*
D01*
X06728Y07039*
X06731Y07035*
X06735Y07031*
X06739Y07027*
X06743Y07024*
X06747Y0702*
X06752Y07018*
X06757Y07015*
X06762Y07013*
X06767Y07011*
X06772Y0701*
X06778Y07008*
X06783Y07008*
X06789Y07007*
X06794Y07007*
X068Y07008*
X06805Y07009*
X06811Y0701*
X06816Y07011*
X06821Y07013*
X06826Y07016*
X06831Y07018*
X06835Y07021*
X0684Y07025*
X06844Y07028*
X06848Y07032*
X06852Y07036*
X06855Y0704*
X06858Y07045*
X06861Y0705*
X06862Y07053*
Y0702D02*
D01*
X0686Y07025*
X06857Y0703*
X06854Y07035*
X06851Y07039*
X06847Y07043*
X06843Y07047*
X06839Y0705*
X06834Y07053*
X0683Y07056*
X06825Y07059*
X0682Y07061*
X06814Y07063*
X06809Y07064*
X06804Y07065*
X06798Y07066*
X06793Y07066*
X06787Y07066*
X06782Y07066*
X06776Y07065*
X06771Y07064*
X06766Y07062*
X06761Y0706*
X06756Y07058*
X06751Y07055*
X06746Y07053*
X06742Y07049*
X06738Y07046*
X06734Y07042*
X0673Y07038*
X06727Y07033*
X06724Y0703*
Y06945D02*
D01*
X06728Y06941*
X06731Y06937*
X06735Y06932*
X06739Y06929*
X06743Y06925*
X06747Y06922*
X06752Y06919*
X06757Y06917*
X06762Y06914*
X06767Y06913*
X06772Y06911*
X06778Y0691*
X06783Y06909*
X06789Y06909*
X06794Y06909*
X068Y06909*
X06805Y0691*
X06811Y06911*
X06816Y06913*
X06821Y06915*
X06826Y06917*
X06831Y0692*
X06835Y06923*
X0684Y06926*
X06844Y0693*
X06848Y06934*
X06852Y06938*
X06855Y06942*
X06858Y06947*
X06861Y06951*
X06862Y06955*
X06276Y07349D02*
D01*
X06279Y07344*
X06282Y07339*
X06285Y07334*
X06288Y0733*
X06292Y07326*
X06296Y07322*
X063Y07319*
X06305Y07316*
X06309Y07313*
X06314Y0731*
X06319Y07308*
X06324Y07306*
X0633Y07305*
X06335Y07304*
X0634Y07303*
X06346Y07303*
X06351Y07303*
X06357Y07303*
X06362Y07304*
X06368Y07305*
X06373Y07307*
X06378Y07309*
X06383Y07311*
X06388Y07314*
X06393Y07317*
X06397Y0732*
X06401Y07323*
X06405Y07327*
X06409Y07331*
X06412Y07336*
X06414Y07339*
Y07424D02*
D01*
X06411Y07428*
X06408Y07433*
X06404Y07437*
X064Y0744*
X06396Y07444*
X06391Y07447*
X06387Y0745*
X06382Y07452*
X06377Y07455*
X06372Y07456*
X06366Y07458*
X06361Y07459*
X06355Y0746*
X0635Y0746*
X06344Y0746*
X06339Y0746*
X06334Y07459*
X06328Y07458*
X06323Y07456*
X06318Y07454*
X06313Y07452*
X06308Y07449*
X06303Y07446*
X06299Y07443*
X06295Y07439*
X06291Y07436*
X06287Y07431*
X06284Y07427*
X06281Y07423*
X06278Y07418*
X06276Y07414*
Y0725D02*
D01*
X06279Y07245*
X06282Y07241*
X06285Y07236*
X06288Y07232*
X06292Y07228*
X06296Y07224*
X063Y0722*
X06305Y07217*
X06309Y07214*
X06314Y07212*
X06319Y0721*
X06324Y07208*
X0633Y07206*
X06335Y07205*
X0634Y07205*
X06346Y07204*
X06351Y07204*
X06357Y07205*
X06362Y07206*
X06368Y07207*
X06373Y07208*
X06378Y0721*
X06383Y07213*
X06388Y07215*
X06393Y07218*
X06397Y07221*
X06401Y07225*
X06405Y07229*
X06409Y07233*
X06412Y07237*
X06414Y07241*
Y07325D02*
D01*
X06411Y0733*
X06408Y07334*
X06404Y07338*
X064Y07342*
X06396Y07345*
X06391Y07349*
X06387Y07352*
X06382Y07354*
X06377Y07356*
X06372Y07358*
X06366Y0736*
X06361Y07361*
X06355Y07361*
X0635Y07362*
X06344Y07362*
X06339Y07361*
X06334Y0736*
X06328Y07359*
X06323Y07358*
X06318Y07356*
X06313Y07353*
X06308Y07351*
X06303Y07348*
X06299Y07345*
X06295Y07341*
X06291Y07337*
X06287Y07333*
X06284Y07329*
X06281Y07324*
X06278Y07319*
X06276Y07316*
Y07152D02*
D01*
X06279Y07147*
X06282Y07142*
X06285Y07138*
X06288Y07133*
X06292Y07129*
X06296Y07125*
X063Y07122*
X06305Y07119*
X06309Y07116*
X06314Y07113*
X06319Y07111*
X06324Y07109*
X0633Y07108*
X06335Y07107*
X0634Y07106*
X06346Y07106*
X06351Y07106*
X06357Y07106*
X06362Y07107*
X06368Y07108*
X06373Y0711*
X06378Y07112*
X06383Y07114*
X06388Y07117*
X06393Y0712*
X06397Y07123*
X06401Y07127*
X06405Y0713*
X06409Y07135*
X06412Y07139*
X06414Y07142*
Y07227D02*
D01*
X06411Y07231*
X06408Y07236*
X06404Y0724*
X064Y07244*
X06396Y07247*
X06391Y0725*
X06387Y07253*
X06382Y07256*
X06377Y07258*
X06372Y0726*
X06366Y07261*
X06361Y07262*
X06355Y07263*
X0635Y07263*
X06344Y07263*
X06339Y07263*
X06334Y07262*
X06328Y07261*
X06323Y07259*
X06318Y07257*
X06313Y07255*
X06308Y07252*
X06303Y07249*
X06299Y07246*
X06295Y07243*
X06291Y07239*
X06287Y07235*
X06284Y0723*
X06281Y07226*
X06278Y07221*
X06276Y07217*
Y07053D02*
D01*
X06279Y07048*
X06282Y07044*
X06285Y07039*
X06288Y07035*
X06292Y07031*
X06296Y07027*
X063Y07024*
X06305Y0702*
X06309Y07018*
X06314Y07015*
X06319Y07013*
X06324Y07011*
X0633Y0701*
X06335Y07008*
X0634Y07008*
X06346Y07007*
X06351Y07007*
X06357Y07008*
X06362Y07009*
X06368Y0701*
X06373Y07011*
X06378Y07013*
X06383Y07016*
X06388Y07018*
X06393Y07021*
X06397Y07025*
X06401Y07028*
X06405Y07032*
X06409Y07036*
X06412Y0704*
X06414Y07044*
Y07128D02*
D01*
X06411Y07133*
X06408Y07137*
X06404Y07141*
X064Y07145*
X06396Y07149*
X06391Y07152*
X06387Y07155*
X06382Y07157*
X06377Y07159*
X06372Y07161*
X06366Y07163*
X06361Y07164*
X06355Y07164*
X0635Y07165*
X06344Y07165*
X06339Y07164*
X06334Y07164*
X06328Y07162*
X06323Y07161*
X06318Y07159*
X06313Y07157*
X06308Y07154*
X06303Y07151*
X06299Y07148*
X06295Y07144*
X06291Y0714*
X06287Y07136*
X06284Y07132*
X06281Y07127*
X06278Y07122*
X06276Y07119*
Y06955D02*
D01*
X06279Y0695*
X06282Y06945*
X06285Y06941*
X06288Y06936*
X06292Y06932*
X06296Y06929*
X063Y06925*
X06305Y06922*
X06309Y06919*
X06314Y06917*
X06319Y06914*
X06324Y06913*
X0633Y06911*
X06335Y0691*
X0634Y06909*
X06346Y06909*
X06351Y06909*
X06357Y06909*
X06362Y0691*
X06368Y06911*
X06373Y06913*
X06378Y06915*
X06383Y06917*
X06388Y0692*
X06393Y06923*
X06397Y06926*
X06401Y0693*
X06405Y06934*
X06409Y06938*
X06412Y06942*
X06414Y06945*
Y0703D02*
D01*
X06411Y07035*
X06408Y07039*
X06404Y07043*
X064Y07047*
X06396Y0705*
X06391Y07053*
X06387Y07056*
X06382Y07059*
X06377Y07061*
X06372Y07063*
X06366Y07064*
X06361Y07065*
X06355Y07066*
X0635Y07066*
X06344Y07066*
X06339Y07066*
X06334Y07065*
X06328Y07064*
X06323Y07062*
X06318Y0706*
X06313Y07058*
X06308Y07056*
X06303Y07053*
X06299Y07049*
X06295Y07046*
X06291Y07042*
X06287Y07038*
X06284Y07033*
X06281Y07029*
X06278Y07024*
X06276Y0702*
X05927Y07414D02*
D01*
X05925Y07419*
X05922Y07424*
X05919Y07428*
X05916Y07433*
X05912Y07437*
X05908Y0744*
X05904Y07444*
X05899Y07447*
X05894Y0745*
X0589Y07453*
X05885Y07455*
X05879Y07457*
X05874Y07458*
X05869Y07459*
X05863Y0746*
X05858Y0746*
X05852Y0746*
X05847Y0746*
X05841Y07459*
X05836Y07458*
X05831Y07456*
X05826Y07454*
X05821Y07452*
X05816Y07449*
X05811Y07446*
X05807Y07443*
X05803Y07439*
X05799Y07436*
X05795Y07431*
X05792Y07427*
X05789Y07424*
Y07339D02*
D01*
X05793Y07335*
X05796Y0733*
X058Y07326*
X05804Y07322*
X05808Y07319*
X05812Y07316*
X05817Y07313*
X05822Y0731*
X05827Y07308*
X05832Y07306*
X05837Y07305*
X05843Y07304*
X05848Y07303*
X05854Y07303*
X05859Y07303*
X05865Y07303*
X0587Y07304*
X05876Y07305*
X05881Y07307*
X05886Y07309*
X05891Y07311*
X05896Y07314*
X059Y07317*
X05905Y0732*
X05909Y07323*
X05913Y07327*
X05917Y07331*
X0592Y07336*
X05923Y0734*
X05926Y07345*
X05927Y07349*
Y07316D02*
D01*
X05925Y07321*
X05922Y07325*
X05919Y0733*
X05916Y07334*
X05912Y07338*
X05908Y07342*
X05904Y07345*
X05899Y07349*
X05894Y07352*
X0589Y07354*
X05885Y07356*
X05879Y07358*
X05874Y0736*
X05869Y07361*
X05863Y07361*
X05858Y07362*
X05852Y07362*
X05847Y07361*
X05841Y0736*
X05836Y07359*
X05831Y07358*
X05826Y07356*
X05821Y07353*
X05816Y07351*
X05811Y07348*
X05807Y07345*
X05803Y07341*
X05799Y07337*
X05795Y07333*
X05792Y07329*
X05789Y07325*
Y07241D02*
D01*
X05793Y07236*
X05796Y07232*
X058Y07228*
X05804Y07224*
X05808Y0722*
X05812Y07217*
X05817Y07214*
X05822Y07212*
X05827Y0721*
X05832Y07208*
X05837Y07206*
X05843Y07205*
X05848Y07205*
X05854Y07204*
X05859Y07204*
X05865Y07205*
X0587Y07206*
X05876Y07207*
X05881Y07208*
X05886Y0721*
X05891Y07213*
X05896Y07215*
X059Y07218*
X05905Y07221*
X05909Y07225*
X05913Y07229*
X05917Y07233*
X0592Y07237*
X05923Y07242*
X05926Y07247*
X05927Y0725*
Y07217D02*
D01*
X05925Y07222*
X05922Y07227*
X05919Y07231*
X05916Y07236*
X05912Y0724*
X05908Y07244*
X05904Y07247*
X05899Y0725*
X05894Y07253*
X0589Y07256*
X05885Y07258*
X05879Y0726*
X05874Y07261*
X05869Y07262*
X05863Y07263*
X05858Y07263*
X05852Y07263*
X05847Y07263*
X05841Y07262*
X05836Y07261*
X05831Y07259*
X05826Y07257*
X05821Y07255*
X05816Y07252*
X05811Y07249*
X05807Y07246*
X05803Y07243*
X05799Y07239*
X05795Y07235*
X05792Y0723*
X05789Y07227*
Y07142D02*
D01*
X05793Y07138*
X05796Y07133*
X058Y07129*
X05804Y07126*
X05808Y07122*
X05812Y07119*
X05817Y07116*
X05822Y07113*
X05827Y07111*
X05832Y07109*
X05837Y07108*
X05843Y07107*
X05848Y07106*
X05854Y07106*
X05859Y07106*
X05865Y07106*
X0587Y07107*
X05876Y07108*
X05881Y0711*
X05886Y07112*
X05891Y07114*
X05896Y07117*
X059Y0712*
X05905Y07123*
X05909Y07126*
X05913Y0713*
X05917Y07134*
X0592Y07139*
X05923Y07143*
X05926Y07148*
X05927Y07152*
Y07119D02*
D01*
X05925Y07124*
X05922Y07129*
X05919Y07133*
X05916Y07137*
X05912Y07141*
X05908Y07145*
X05904Y07149*
X05899Y07152*
X05894Y07155*
X0589Y07157*
X05885Y07159*
X05879Y07161*
X05874Y07163*
X05869Y07164*
X05863Y07165*
X05858Y07165*
X05852Y07165*
X05847Y07164*
X05841Y07164*
X05836Y07162*
X05831Y07161*
X05826Y07159*
X05821Y07157*
X05816Y07154*
X05811Y07151*
X05807Y07148*
X05803Y07144*
X05799Y0714*
X05795Y07136*
X05792Y07132*
X05789Y07128*
Y07044D02*
D01*
X05793Y07039*
X05796Y07035*
X058Y07031*
X05804Y07027*
X05808Y07024*
X05812Y0702*
X05817Y07018*
X05822Y07015*
X05827Y07013*
X05832Y07011*
X05837Y0701*
X05843Y07008*
X05848Y07008*
X05854Y07007*
X05859Y07007*
X05865Y07008*
X0587Y07009*
X05876Y0701*
X05881Y07011*
X05886Y07013*
X05891Y07016*
X05896Y07018*
X059Y07021*
X05905Y07025*
X05909Y07028*
X05913Y07032*
X05917Y07036*
X0592Y0704*
X05923Y07045*
X05926Y0705*
X05927Y07053*
Y0702D02*
D01*
X05925Y07025*
X05922Y0703*
X05919Y07035*
X05916Y07039*
X05912Y07043*
X05908Y07047*
X05904Y0705*
X05899Y07053*
X05894Y07056*
X0589Y07059*
X05885Y07061*
X05879Y07063*
X05874Y07064*
X05869Y07065*
X05863Y07066*
X05858Y07066*
X05852Y07066*
X05847Y07066*
X05841Y07065*
X05836Y07064*
X05831Y07062*
X05826Y0706*
X05821Y07058*
X05816Y07055*
X05811Y07053*
X05807Y07049*
X05803Y07046*
X05799Y07042*
X05795Y07038*
X05792Y07033*
X05789Y0703*
Y06945D02*
D01*
X05793Y06941*
X05796Y06937*
X058Y06932*
X05804Y06929*
X05808Y06925*
X05812Y06922*
X05817Y06919*
X05822Y06917*
X05827Y06914*
X05832Y06913*
X05837Y06911*
X05843Y0691*
X05848Y06909*
X05854Y06909*
X05859Y06909*
X05865Y06909*
X0587Y0691*
X05876Y06911*
X05881Y06913*
X05886Y06915*
X05891Y06917*
X05896Y0692*
X059Y06923*
X05905Y06926*
X05909Y0693*
X05913Y06934*
X05917Y06938*
X0592Y06942*
X05923Y06947*
X05926Y06951*
X05927Y06955*
X05484Y07414D02*
D01*
X05482Y07419*
X05479Y07424*
X05476Y07428*
X05473Y07433*
X05469Y07437*
X05465Y0744*
X05461Y07444*
X05456Y07447*
X05452Y0745*
X05447Y07453*
X05442Y07455*
X05436Y07457*
X05431Y07458*
X05426Y07459*
X0542Y0746*
X05415Y0746*
X05409Y0746*
X05404Y0746*
X05398Y07459*
X05393Y07458*
X05388Y07456*
X05383Y07454*
X05378Y07452*
X05373Y07449*
X05368Y07446*
X05364Y07443*
X0536Y07439*
X05356Y07436*
X05352Y07431*
X05349Y07427*
X05346Y07424*
Y07339D02*
D01*
X0535Y07335*
X05353Y0733*
X05357Y07326*
X05361Y07322*
X05365Y07319*
X05369Y07316*
X05374Y07313*
X05379Y0731*
X05384Y07308*
X05389Y07306*
X05395Y07305*
X054Y07304*
X05405Y07303*
X05411Y07303*
X05416Y07303*
X05422Y07303*
X05427Y07304*
X05433Y07305*
X05438Y07307*
X05443Y07309*
X05448Y07311*
X05453Y07314*
X05458Y07317*
X05462Y0732*
X05466Y07323*
X0547Y07327*
X05474Y07331*
X05477Y07336*
X0548Y0734*
X05483Y07345*
X05484Y07349*
X05341Y0725D02*
D01*
X05344Y07245*
X05347Y07241*
X0535Y07236*
X05353Y07232*
X05357Y07228*
X05361Y07224*
X05365Y0722*
X0537Y07217*
X05374Y07214*
X05379Y07212*
X05384Y0721*
X05389Y07208*
X05395Y07206*
X054Y07205*
X05405Y07205*
X05411Y07204*
X05416Y07204*
X05422Y07205*
X05427Y07206*
X05433Y07207*
X05438Y07208*
X05443Y0721*
X05448Y07213*
X05453Y07215*
X05458Y07218*
X05462Y07221*
X05466Y07225*
X0547Y07229*
X05474Y07233*
X05477Y07237*
X05479Y07241*
Y07325D02*
D01*
X05476Y0733*
X05473Y07334*
X05469Y07338*
X05465Y07342*
X05461Y07345*
X05456Y07349*
X05452Y07352*
X05447Y07354*
X05442Y07356*
X05437Y07358*
X05431Y0736*
X05426Y07361*
X0542Y07361*
X05415Y07362*
X05409Y07362*
X05404Y07361*
X05399Y0736*
X05393Y07359*
X05388Y07358*
X05383Y07356*
X05378Y07353*
X05373Y07351*
X05368Y07348*
X05364Y07345*
X0536Y07341*
X05356Y07337*
X05352Y07333*
X05349Y07329*
X05346Y07324*
X05343Y07319*
X05341Y07316*
Y07152D02*
D01*
X05344Y07147*
X05347Y07142*
X0535Y07138*
X05353Y07133*
X05357Y07129*
X05361Y07125*
X05365Y07122*
X0537Y07119*
X05374Y07116*
X05379Y07113*
X05384Y07111*
X05389Y07109*
X05395Y07108*
X054Y07107*
X05405Y07106*
X05411Y07106*
X05416Y07106*
X05422Y07106*
X05427Y07107*
X05433Y07108*
X05438Y0711*
X05443Y07112*
X05448Y07114*
X05453Y07117*
X05458Y0712*
X05462Y07123*
X05466Y07127*
X0547Y0713*
X05474Y07135*
X05477Y07139*
X05479Y07142*
Y07227D02*
D01*
X05476Y07231*
X05473Y07236*
X05469Y0724*
X05465Y07244*
X05461Y07247*
X05456Y0725*
X05452Y07253*
X05447Y07256*
X05442Y07258*
X05437Y0726*
X05431Y07261*
X05426Y07262*
X0542Y07263*
X05415Y07263*
X05409Y07263*
X05404Y07263*
X05399Y07262*
X05393Y07261*
X05388Y07259*
X05383Y07257*
X05378Y07255*
X05373Y07252*
X05368Y07249*
X05364Y07246*
X0536Y07243*
X05356Y07239*
X05352Y07235*
X05349Y0723*
X05346Y07226*
X05343Y07221*
X05341Y07217*
Y07053D02*
D01*
X05344Y07048*
X05347Y07044*
X0535Y07039*
X05353Y07035*
X05357Y07031*
X05361Y07027*
X05365Y07024*
X0537Y0702*
X05374Y07018*
X05379Y07015*
X05384Y07013*
X05389Y07011*
X05395Y0701*
X054Y07008*
X05405Y07008*
X05411Y07007*
X05416Y07007*
X05422Y07008*
X05427Y07009*
X05433Y0701*
X05438Y07011*
X05443Y07013*
X05448Y07016*
X05453Y07018*
X05458Y07021*
X05462Y07025*
X05466Y07028*
X0547Y07032*
X05474Y07036*
X05477Y0704*
X05479Y07044*
Y07128D02*
D01*
X05476Y07133*
X05473Y07137*
X05469Y07141*
X05465Y07145*
X05461Y07149*
X05456Y07152*
X05452Y07155*
X05447Y07157*
X05442Y07159*
X05437Y07161*
X05431Y07163*
X05426Y07164*
X0542Y07164*
X05415Y07165*
X05409Y07165*
X05404Y07164*
X05399Y07164*
X05393Y07162*
X05388Y07161*
X05383Y07159*
X05378Y07157*
X05373Y07154*
X05368Y07151*
X05364Y07148*
X0536Y07144*
X05356Y0714*
X05352Y07136*
X05349Y07132*
X05346Y07127*
X05343Y07122*
X05341Y07119*
Y06955D02*
D01*
X05344Y0695*
X05347Y06945*
X0535Y06941*
X05353Y06936*
X05357Y06932*
X05361Y06929*
X05365Y06925*
X0537Y06922*
X05374Y06919*
X05379Y06917*
X05384Y06914*
X05389Y06913*
X05395Y06911*
X054Y0691*
X05405Y06909*
X05411Y06909*
X05416Y06909*
X05422Y06909*
X05427Y0691*
X05433Y06911*
X05438Y06913*
X05443Y06915*
X05448Y06917*
X05453Y0692*
X05458Y06923*
X05462Y06926*
X05466Y0693*
X0547Y06934*
X05474Y06938*
X05477Y06942*
X05479Y06945*
Y0703D02*
D01*
X05476Y07035*
X05473Y07039*
X05469Y07043*
X05465Y07047*
X05461Y0705*
X05456Y07053*
X05452Y07056*
X05447Y07059*
X05442Y07061*
X05437Y07063*
X05431Y07064*
X05426Y07065*
X0542Y07066*
X05415Y07066*
X05409Y07066*
X05404Y07066*
X05399Y07065*
X05393Y07064*
X05388Y07062*
X05383Y0706*
X05378Y07058*
X05373Y07056*
X05368Y07053*
X05364Y07049*
X0536Y07046*
X05356Y07042*
X05352Y07038*
X05349Y07033*
X05346Y07029*
X05343Y07024*
X05341Y0702*
X05716Y07652D02*
D01*
X05718Y07652*
X0572Y07652*
X05721Y07652*
X05723Y07653*
X05725Y07653*
X05726Y07654*
X05728Y07655*
X05729Y07655*
X05731Y07656*
X05732Y07658*
X05733Y07659*
X05735Y0766*
X05736Y07661*
X05737Y07663*
X05738Y07664*
X05739Y07666*
X05739Y07667*
X0574Y07669*
X0574Y07671*
X05741Y07672*
X05741Y07674*
X05741Y07676*
Y07678*
X05741Y07679*
X05741Y07681*
X0574Y07683*
X0574Y07684*
X05739Y07686*
X05739Y07688*
X05738Y07689*
X05737Y07691*
X05736Y07692*
X05735Y07693*
X05733Y07695*
X05732Y07696*
X05731Y07697*
X05729Y07698*
X05728Y07699*
X05726Y077*
X05725Y077*
X05723Y07701*
X05721Y07701*
X0572Y07701*
X05718Y07702*
X05716Y07702*
X05757Y08022D02*
X06457D01*
X05757Y07922D02*
Y08022D01*
Y07922D02*
X06457D01*
Y08022*
X06691Y06859D02*
Y06889D01*
Y06859D02*
X06891D01*
Y06919*
X06691D02*
X06891D01*
X06691Y06889D02*
Y06919D01*
X06891Y06889D02*
X069D01*
X06682D02*
X06691D01*
X06248Y06859D02*
Y06889D01*
Y06859D02*
X06448D01*
Y06919*
X06248D02*
X06448D01*
X06248Y06889D02*
Y06919D01*
X06448Y06889D02*
X06457D01*
X06239D02*
X06248D01*
X05956D02*
Y06919D01*
X05756D02*
X05956D01*
X05756Y06859D02*
Y06919D01*
Y06859D02*
X05956D01*
Y06889*
X05747D02*
X05756D01*
X05956D02*
X05965D01*
X05513D02*
Y06919D01*
X05313D02*
X05513D01*
X05313Y06859D02*
Y06919D01*
Y06859D02*
X05513D01*
Y06889*
X05304D02*
X05313D01*
X05513D02*
X05522D01*
X05757Y0625D02*
X06457D01*
X05757Y0615D02*
Y0625D01*
Y0615D02*
X06457D01*
Y0625*
X05304Y06791D02*
X05313D01*
X05513D02*
X05522D01*
X05313D02*
Y06821D01*
X05513*
Y06761D02*
Y06821D01*
X05313Y06761D02*
X05513D01*
X05313D02*
Y06791D01*
X06488Y07572D02*
Y07781D01*
X05716Y07702D02*
Y07781D01*
Y07572D02*
Y07652D01*
Y07781D02*
X06488D01*
X05716Y07572D02*
X06488D01*
X05304Y06397D02*
X05313D01*
X05513D02*
X05522D01*
X05313D02*
Y06427D01*
X05513*
Y06367D02*
Y06427D01*
X05313Y06367D02*
X05513D01*
X05313D02*
Y06397D01*
X05513Y06496D02*
X05522D01*
X05304D02*
X05313D01*
X05513Y06466D02*
Y06496D01*
X05313Y06466D02*
X05513D01*
X05313D02*
Y06526D01*
X05513*
Y06496D02*
Y06526D01*
X05304Y06594D02*
X05313D01*
X05513D02*
X05522D01*
X05313D02*
Y06624D01*
X05513*
Y06564D02*
Y06624D01*
X05313Y06564D02*
X05513D01*
X05313D02*
Y06594D01*
X05513Y06692D02*
X05522D01*
X05304D02*
X05313D01*
X05513Y06662D02*
Y06692D01*
X05313Y06662D02*
X05513D01*
X05313D02*
Y06722D01*
X05513*
Y06692D02*
Y06722D01*
X05747Y06397D02*
X05756D01*
X05956D02*
X05965D01*
X05756D02*
Y06427D01*
X05956*
Y06367D02*
Y06427D01*
X05756Y06367D02*
X05956D01*
X05756D02*
Y06397D01*
X05956Y06496D02*
X05965D01*
X05747D02*
X05756D01*
X05956Y06466D02*
Y06496D01*
X05756Y06466D02*
X05956D01*
X05756D02*
Y06526D01*
X05956*
Y06496D02*
Y06526D01*
X05747Y06594D02*
X05756D01*
X05956D02*
X05965D01*
X05756D02*
Y06624D01*
X05956*
Y06564D02*
Y06624D01*
X05756Y06564D02*
X05956D01*
X05756D02*
Y06594D01*
X05956Y06692D02*
X05965D01*
X05747D02*
X05756D01*
X05956Y06662D02*
Y06692D01*
X05756Y06662D02*
X05956D01*
X05756D02*
Y06722D01*
X05956*
Y06692D02*
Y06722D01*
X05747Y06791D02*
X05756D01*
X05956D02*
X05965D01*
X05756D02*
Y06821D01*
X05956*
Y06761D02*
Y06821D01*
X05756Y06761D02*
X05956D01*
X05756D02*
Y06791D01*
X06448Y06397D02*
X06457D01*
X06239D02*
X06248D01*
X06448Y06367D02*
Y06397D01*
X06248Y06367D02*
X06448D01*
X06248D02*
Y06427D01*
X06448*
Y06397D02*
Y06427D01*
X06239Y06496D02*
X06248D01*
X06448D02*
X06457D01*
X06248D02*
Y06526D01*
X06448*
Y06466D02*
Y06526D01*
X06248Y06466D02*
X06448D01*
X06248D02*
Y06496D01*
X06448Y06594D02*
X06457D01*
X06239D02*
X06248D01*
X06448Y06564D02*
Y06594D01*
X06248Y06564D02*
X06448D01*
X06248D02*
Y06624D01*
X06448*
Y06594D02*
Y06624D01*
X06239Y06692D02*
X06248D01*
X06448D02*
X06457D01*
X06248D02*
Y06722D01*
X06448*
Y06662D02*
Y06722D01*
X06248Y06662D02*
X06448D01*
X06248D02*
Y06692D01*
X06448Y06791D02*
X06457D01*
X06239D02*
X06248D01*
X06448Y06761D02*
Y06791D01*
X06248Y06761D02*
X06448D01*
X06248D02*
Y06821D01*
X06448*
Y06791D02*
Y06821D01*
X06891Y06397D02*
X069D01*
X06682D02*
X06691D01*
X06891Y06367D02*
Y06397D01*
X06691Y06367D02*
X06891D01*
X06691D02*
Y06427D01*
X06891*
Y06397D02*
Y06427D01*
X06682Y06496D02*
X06691D01*
X06891D02*
X069D01*
X06691D02*
Y06526D01*
X06891*
Y06466D02*
Y06526D01*
X06691Y06466D02*
X06891D01*
X06691D02*
Y06496D01*
X06891Y06594D02*
X069D01*
X06682D02*
X06691D01*
X06891Y06564D02*
Y06594D01*
X06691Y06564D02*
X06891D01*
X06691D02*
Y06624D01*
X06891*
Y06594D02*
Y06624D01*
X06682Y06692D02*
X06691D01*
X06891D02*
X069D01*
X06691D02*
Y06722D01*
X06891*
Y06662D02*
Y06722D01*
X06691Y06662D02*
X06891D01*
X06691D02*
Y06692D01*
X06891Y06791D02*
X069D01*
X06682D02*
X06691D01*
X06891Y06761D02*
Y06791D01*
X06691Y06761D02*
X06891D01*
X06691D02*
Y06821D01*
X06891*
Y06791D02*
Y06821D01*
G54D19*
X05767Y07612D02*
D01*
X05767Y07613*
X05767Y07613*
X05767Y07614*
X05767Y07615*
X05767Y07616*
X05766Y07617*
X05766Y07617*
X05765Y07618*
X05765Y07619*
X05764Y07619*
X05764Y0762*
X05763Y0762*
X05763Y07621*
X05762Y07621*
X05761Y07622*
X05761Y07622*
X0576Y07623*
X05759Y07623*
X05758Y07623*
X05757Y07623*
X05757Y07623*
X05756Y07624*
X05755*
X05754Y07623*
X05753Y07623*
X05753Y07623*
X05752Y07623*
X05751Y07623*
X0575Y07622*
X0575Y07622*
X05749Y07621*
X05748Y07621*
X05748Y0762*
X05747Y0762*
X05746Y07619*
X05746Y07619*
X05745Y07618*
X05745Y07617*
X05745Y07617*
X05744Y07616*
X05744Y07615*
X05744Y07614*
X05744Y07613*
X05744Y07613*
X05744Y07612*
X05744Y07611*
X05744Y0761*
X05744Y07609*
X05744Y07608*
X05744Y07608*
X05745Y07607*
X05745Y07606*
X05745Y07605*
X05746Y07605*
X05746Y07604*
X05747Y07604*
X05748Y07603*
X05748Y07602*
X05749Y07602*
X0575Y07601*
X0575Y07601*
X05751Y07601*
X05752Y076*
X05753Y076*
X05753Y076*
X05754Y076*
X05755Y076*
X05756*
X05757Y076*
X05757Y076*
X05758Y076*
X05759Y076*
X0576Y07601*
X05761Y07601*
X05761Y07601*
X05762Y07602*
X05763Y07602*
X05763Y07603*
X05764Y07604*
X05764Y07604*
X05765Y07605*
X05765Y07605*
X05766Y07606*
X05766Y07607*
X05767Y07608*
X05767Y07608*
X05767Y07609*
X05767Y0761*
X05767Y07611*
X05767Y07612*
G54D20*
X05756Y07527D02*
D01*
X05756Y07527*
X05756Y07527*
X05755Y07528*
X05755Y07528*
X05755Y07528*
X05755Y07529*
X05755Y07529*
X05755Y07529*
X05755Y0753*
X05754Y0753*
X05754Y0753*
X05754Y0753*
X05754Y07531*
X05753Y07531*
X05753Y07531*
X05753Y07531*
X05753Y07531*
X05752Y07531*
X05752Y07531*
X05752Y07532*
X05751Y07532*
X05751Y07532*
X05751*
X0575Y07532*
X0575Y07532*
X05749Y07531*
X05749Y07531*
X05749Y07531*
X05749Y07531*
X05748Y07531*
X05748Y07531*
X05748Y07531*
X05747Y0753*
X05747Y0753*
X05747Y0753*
X05747Y0753*
X05747Y07529*
X05746Y07529*
X05746Y07529*
X05746Y07528*
X05746Y07528*
X05746Y07528*
X05746Y07527*
X05746Y07527*
X05746Y07527*
X05746Y07526*
X05746Y07526*
X05746Y07526*
X05746Y07525*
X05746Y07525*
X05746Y07525*
X05746Y07524*
X05747Y07524*
X05747Y07524*
X05747Y07524*
X05747Y07523*
X05747Y07523*
X05748Y07523*
X05748Y07523*
X05748Y07522*
X05749Y07522*
X05749Y07522*
X05749Y07522*
X05749Y07522*
X0575Y07522*
X0575Y07522*
X05751Y07522*
X05751*
X05751Y07522*
X05752Y07522*
X05752Y07522*
X05752Y07522*
X05753Y07522*
X05753Y07522*
X05753Y07522*
X05753Y07523*
X05754Y07523*
X05754Y07523*
X05754Y07523*
X05754Y07524*
X05755Y07524*
X05755Y07524*
X05755Y07524*
X05755Y07525*
X05755Y07525*
X05755Y07525*
X05755Y07526*
X05756Y07526*
X05756Y07526*
X05756Y07527*
M02*