%FSTAX23Y23*%
%MOIN*%
%SFA1B1*%

%IPPOS*%
%ADD10C,0.010000*%
%ADD11C,0.053150*%
%ADD12R,0.053150X0.053150*%
%ADD13C,0.059055*%
%ADD14R,0.059055X0.059055*%
%ADD15C,0.055118*%
%ADD16C,0.060000*%
%ADD17R,0.059055X0.059055*%
%LNlpf-1*%
%LPD*%
G54D10*
X06302Y07827D02*
X06402D01*
X06407Y07831*
Y07972*
X05802Y07827D02*
X05902D01*
X05802D02*
X05807Y07831D01*
Y07972*
X06198Y06791D02*
X06198Y06791D01*
Y06692D02*
Y06791D01*
X06889Y06988D02*
Y07086D01*
Y06988D02*
D01*
X06791Y06889D02*
X06889Y06988D01*
X06791Y06744D02*
Y06889D01*
X06641Y06594D02*
X06791Y06744D01*
X06641Y06496D02*
Y06594D01*
X06941Y06397D02*
Y06496D01*
Y06594D02*
Y06692D01*
Y06791D02*
Y06889D01*
X06941*
X06641Y06692D02*
Y06791D01*
X06498Y06397D02*
X06498Y06397D01*
Y06496*
X06498Y06594D02*
Y06692D01*
X06498Y06692*
X06498Y06791D02*
Y06889D01*
X06498Y06889*
X06889Y07381D02*
D01*
Y07283D02*
Y07381D01*
X05314D02*
D01*
Y07283D02*
Y07381D01*
X06791Y07086D02*
X06889Y07185D01*
X06791Y06988D02*
Y07086D01*
X06692Y06889D02*
X06791Y06988D01*
X06641Y06889D02*
X06692D01*
X06202Y07823D02*
Y07827D01*
Y07823D02*
X06545Y0748D01*
X06692*
X06791Y07381*
Y07283D02*
Y07381D01*
Y07283D02*
X06889Y07185D01*
X05563Y06496D02*
Y06594D01*
X05314Y07185D02*
D01*
X05413Y07086*
Y06988D02*
Y07086D01*
Y06988D02*
X05511Y06889D01*
X05563*
Y06692D02*
Y06791D01*
X05563*
X05415Y06742D02*
X05563Y06594D01*
X05413Y06742D02*
X05415D01*
X05413D02*
Y06889D01*
X05314Y06988D02*
X05413Y06889D01*
X05314Y06988D02*
Y07086D01*
X05263Y06397D02*
Y06496D01*
Y06594D02*
Y06692D01*
X05263Y06791D02*
Y06889D01*
X05263D02*
X05263D01*
X05706Y06397D02*
Y06496D01*
X05706D02*
X05706D01*
X05706Y06594D02*
X05706Y06594D01*
X05706Y06594D02*
Y06692D01*
X05706Y06791D02*
Y06889D01*
D01*
X06641Y06395D02*
Y06397D01*
X06446Y062D02*
X06641Y06395D01*
X06446Y062D02*
D01*
X06407D02*
X06446D01*
X05563Y06397D02*
X0576Y062D01*
X05807*
X06348Y07381D02*
X06446D01*
X0625Y07283D02*
X06348Y07381D01*
X0625Y07283D02*
D01*
X05757Y07381D02*
X05856D01*
X05954Y07283*
X06302Y07527D02*
X06402D01*
X0625Y07474D02*
X06302Y07527D01*
X0625Y07381D02*
Y07474D01*
X05802Y07527D02*
X05902D01*
X05907*
X05954Y0748*
Y07381D02*
Y0748D01*
X06198Y06594D02*
X06198Y06594D01*
Y06496D02*
Y06594D01*
X06006D02*
X06006Y06594D01*
X06006Y06496D02*
Y06594D01*
X06198Y06397D02*
X062D01*
X06307Y06291*
Y062D02*
Y06291D01*
X06003Y06397D02*
X06006D01*
X05905Y06299D02*
X06003Y06397D01*
X05905Y06299D02*
X05907Y06297D01*
Y062D02*
Y06297D01*
X06006Y06791D02*
X06006Y06791D01*
X06006Y06692D02*
Y06791D01*
X06107Y07135D02*
Y07435D01*
X06151Y0748*
Y07923*
X06107Y07967D02*
X06151Y07923D01*
X06107Y07967D02*
Y07972D01*
X06446Y07135D02*
X06692D01*
Y07086D02*
Y07135D01*
Y06988D02*
Y07086D01*
X05511Y07135D02*
X05757D01*
X05511Y07086D02*
Y07135D01*
Y06988D02*
Y07086D01*
X06692Y07135D02*
Y07185D01*
X05314D02*
X05413Y07283D01*
Y07381*
X05511Y0748*
X05655*
X06002Y07827*
X05511Y07135D02*
Y07185D01*
X0625Y06988D02*
Y07086D01*
Y06646D02*
Y06988D01*
X06198Y06594D02*
X0625Y06646D01*
X05954Y06646D02*
X06006Y06594D01*
X05954Y06646D02*
Y06988D01*
Y07086*
X06107Y062D02*
Y07135D01*
X05757D02*
D01*
X06107*
X06446*
X05757D02*
D01*
X06446Y06988D02*
Y07086D01*
X05757Y06988D02*
Y07086D01*
X06446Y07135D02*
Y07185D01*
Y07086D02*
Y07135D01*
X05757D02*
Y07185D01*
Y07086D02*
Y07135D01*
G54D11*
X06692Y07381D03*
X06889Y07283D03*
Y07185D03*
Y07086D03*
Y06988D03*
X0625Y07381D03*
Y07283D03*
Y07185D03*
Y07086D03*
Y06988D03*
X05954Y07381D03*
Y07283D03*
Y07185D03*
Y07086D03*
Y06988D03*
X05511Y07381D03*
X05314Y07283D03*
Y07185D03*
Y07086D03*
Y06988D03*
G54D12*
X06889Y07381D03*
X06692Y07283D03*
Y07185D03*
Y07086D03*
Y06988D03*
X06446Y07381D03*
Y07283D03*
Y07185D03*
Y07086D03*
Y06988D03*
X05757Y07381D03*
Y07283D03*
Y07185D03*
Y07086D03*
Y06988D03*
X05314Y07381D03*
X05511Y07283D03*
Y07185D03*
Y07086D03*
Y06988D03*
G54D13*
X06407Y07972D03*
X06307D03*
X06207D03*
X06107D03*
X05907D03*
X06007D03*
X06407Y062D03*
X06307D03*
X06207D03*
X06107D03*
X05907D03*
X06007D03*
X06402Y07827D03*
X06302D03*
X06202D03*
X06102D03*
X06002D03*
X05902D03*
X05802D03*
X06402Y07527D03*
X06302D03*
X06202D03*
X06102D03*
X06002D03*
X05902D03*
G54D14*
X05807Y07972D03*
Y062D03*
G54D15*
X06641Y06889D03*
X06941D03*
X06198D03*
X06498D03*
X06006D03*
X05706D03*
X05563D03*
X05263D03*
X05563Y06791D03*
X05263D03*
X05563Y06397D03*
X05263D03*
Y06496D03*
X05563D03*
Y06594D03*
X05263D03*
Y06692D03*
X05563D03*
X06006Y06397D03*
X05706D03*
X05706Y06496D03*
X06006D03*
X06006Y06594D03*
X05706D03*
X05706Y06692D03*
X06006D03*
X06006Y06791D03*
X05706D03*
X06198Y06397D03*
X06498D03*
X06498Y06496D03*
X06198D03*
X06198Y06594D03*
X06498D03*
X06498Y06692D03*
X06198D03*
X06198Y06791D03*
X06498D03*
X06641Y06397D03*
X06941D03*
Y06496D03*
X06641D03*
Y06594D03*
X06941D03*
Y06692D03*
X06641D03*
Y06791D03*
X06941D03*
G54D16*
X05216Y07972D03*
X06988D03*
Y062D03*
X05216D03*
G54D17*
X05802Y07527D03*
M02*