%FSTAX23Y23*%
%MOIN*%
%SFA1B1*%

%IPPOS*%
%ADD10C,0.010000*%
%LNlpf-1*%
%LPD*%
G54D10*
X05433Y06387D02*
X05393Y06407D01*
X05433Y06427*
X05393Y06447D02*
X05453D01*
X05413D02*
X05433Y06477D01*
X05413Y06447D02*
X05393Y06477D01*
Y06507D02*
X05403D01*
Y06517*
X05393*
Y06507*
X05433Y06597D02*
Y06567D01*
X05423Y06557*
X05403*
X05393Y06567*
Y06597*
Y06627D02*
Y06647D01*
X05403Y06657*
X05423*
X05433Y06647*
Y06627*
X05423Y06617*
X05403*
X05393Y06627*
Y06677D02*
X05433D01*
Y06687*
X05423Y06697*
X05393*
X05423*
X05433Y06707*
X05423Y06717*
X05393*
Y06737D02*
X05433Y06777D01*
X05393Y06807D02*
X05443D01*
X05423*
Y06797*
Y06817*
Y06807*
X05443*
X05453Y06817*
X05373Y06847D02*
X05433D01*
Y06877*
X05423Y06887*
X05403*
X05393Y06877*
Y06847*
X05373Y06927D02*
Y06937D01*
X05383Y06947*
X05433*
Y06917*
X05423Y06907*
X05403*
X05393Y06917*
Y06947*
X05433Y06977D02*
Y06997D01*
X05423Y07007*
X05393*
Y06977*
X05403Y06967*
X05413Y06977*
Y07007*
X05383Y07027D02*
Y07067D01*
X05393Y07087D02*
Y07117D01*
X05403Y07127*
X05413Y07117*
Y07097*
X05423Y07087*
X05433Y07097*
Y07127*
Y07147D02*
X05403D01*
X05393Y07157*
Y07187*
X05383*
X05373Y07177*
Y07167*
X05393Y07187D02*
X05433D01*
X05393Y07207D02*
X05433D01*
Y07237*
X05423Y07247*
X05393*
X05443Y07277D02*
X05433D01*
Y07267*
Y07287*
Y07277*
X05403*
X05393Y07287*
X05453Y07317D02*
X05393D01*
X05423*
X05433Y07327*
Y07347*
X05423Y07357*
X05393*
X06889Y06249D02*
X06879D01*
X06869Y06259*
Y06309*
X06899*
X06909Y06299*
Y06279*
X06899Y06269*
X06869*
X06849D02*
X06829D01*
X06839*
Y06309*
X06849*
X06789Y06319D02*
Y06309D01*
X06799*
X06779*
X06789*
Y06279*
X06779Y06269*
X06749Y06329D02*
Y06269D01*
Y06299*
X06739Y06309*
X06719*
X06709Y06299*
Y06269*
X06689Y06309D02*
Y06279D01*
X06679Y06269*
X06649*
Y06309*
X06629Y06329D02*
Y06269D01*
X06599*
X06589Y06279*
Y06289*
Y06299*
X06599Y06309*
X06629*
X06569Y06269D02*
Y06279D01*
X06559*
Y06269*
X06569*
X06479Y06309D02*
X06509D01*
X06519Y06299*
Y06279*
X06509Y06269*
X06479*
X06449D02*
X06429D01*
X06419Y06279*
Y06299*
X06429Y06309*
X06449*
X06459Y06299*
Y06279*
X06449Y06269*
X06399D02*
Y06309D01*
X06389*
X06379Y06299*
Y06269*
Y06299*
X06369Y06309*
X06359Y06299*
Y06269*
X06339D02*
X06299Y06309D01*
X06279Y06329D02*
Y06279D01*
X06269Y06269*
X06249*
X06239Y06279*
Y06329*
X06219Y06269D02*
Y06309D01*
X06199Y06329*
X06179Y06309*
Y06269*
Y06299*
X06219*
X06159Y06319D02*
X06149Y06329D01*
X06129*
X06119Y06319*
Y06309*
X06129Y06299*
X06139*
X06129*
X06119Y06289*
Y06279*
X06129Y06269*
X06149*
X06159Y06279*
X06099Y06269D02*
Y06329D01*
X06079Y06309*
X06059Y06329*
Y06269*
X05999Y06279D02*
Y06319D01*
X06009Y06329*
X06029*
X06039Y06319*
Y06279*
X06029Y06269*
X06009*
X06019Y06289D02*
X05999Y06269D01*
X06009D02*
X05999Y06279D01*
X05939Y06329D02*
X05959D01*
X05949*
Y06279*
X05959Y06269*
X05969*
X05979Y06279*
X05919Y06269D02*
X05879Y06309D01*
X05849Y06269D02*
Y06319D01*
Y06299*
X05859*
X05839*
X05849*
Y06319*
X05839Y06329*
X05809Y06249D02*
Y06309D01*
X05779*
X05769Y06299*
Y06279*
X05779Y06269*
X05809*
X05729Y06249D02*
X05719D01*
X05709Y06259*
Y06309*
X05739*
X05749Y06299*
Y06279*
X05739Y06269*
X05709*
X05679Y06309D02*
X05659D01*
X05649Y06299*
Y06269*
X05679*
X05689Y06279*
X05679Y06289*
X05649*
X05629Y06299D02*
X05589D01*
X05569Y06269D02*
X05539D01*
X05529Y06279*
X05539Y06289*
X05559*
X05569Y06299*
X05559Y06309*
X05529*
X05509D02*
Y06279D01*
X05499Y06269*
X05469*
Y06259*
X05479Y06249*
X05489*
X05469Y06269D02*
Y06309D01*
X05449Y06269D02*
Y06309D01*
X05419*
X05409Y06299*
Y06269*
X05379Y06319D02*
Y06309D01*
X05389*
X05369*
X05379*
Y06279*
X05369Y06269*
X05339Y06329D02*
Y06269D01*
Y06299*
X05329Y06309*
X05309*
X05299Y06299*
Y06269*
X05639Y0748D02*
X05629D01*
X05619Y0749*
Y07539*
X05649*
X05659Y07529*
Y07509*
X05649Y075*
X05619*
X05599D02*
Y07539D01*
X05589*
X05579Y07529*
Y075*
Y07529*
X05569Y07539*
X05559Y07529*
Y075*
X05529Y07539D02*
X05509D01*
X05499Y07529*
Y075*
X05529*
X05539Y07509*
X05529Y07519*
X05499*
X05379Y07559D02*
Y075D01*
X05409*
X05419Y07509*
Y07529*
X05409Y07539*
X05379*
X05329Y075D02*
X05349D01*
X05359Y07509*
Y07529*
X05349Y07539*
X05329*
X05319Y07529*
Y07519*
X05359*
X05299Y075D02*
X05279D01*
X05289*
Y07559*
X05299*
X05239Y07549D02*
Y07539D01*
X05249*
X05229*
X05239*
Y07509*
X05229Y075*
X05189Y07539D02*
X05169D01*
X05159Y07529*
Y075*
X05189*
X05199Y07509*
X05189Y07519*
X05159*
X05659Y07648D02*
Y07588D01*
X05629*
X05619Y07598*
Y07638*
X05629Y07648*
X05659*
X05599Y07588D02*
Y07628D01*
X05579Y07648*
X05559Y07628*
Y07588*
Y07618*
X05599*
X05499Y07638D02*
X05509Y07648D01*
X05529*
X05539Y07638*
Y07598*
X05529Y07588*
X05509*
X05499Y07598*
X05409Y07588D02*
X05389D01*
X05379Y07598*
Y07618*
X05389Y07628*
X05409*
X05419Y07618*
Y07598*
X05409Y07588*
X05359Y07628D02*
Y07588D01*
Y07608*
X05349Y07618*
X05339Y07628*
X05329*
X05239Y07588D02*
X05209D01*
X05199Y07598*
X05209Y07608*
X05229*
X05239Y07618*
X05229Y07628*
X05199*
X05179Y07588D02*
X05159D01*
X05169*
Y07628*
X05179*
X05669Y07687D02*
X05649D01*
X05659*
Y07746*
X05669Y07736*
X05619Y07716D02*
X05579D01*
X05559Y07746D02*
Y07687D01*
X05529*
X05519Y07697*
Y07707*
Y07716*
X05529Y07726*
X05559*
X05499Y07687D02*
X05479D01*
X05489*
Y07726*
X05499*
X05439Y07736D02*
Y07726D01*
X05449*
X05429*
X05439*
Y07697*
X05429Y07687*
X05339D02*
Y07746D01*
X05309*
X05299Y07736*
Y07716*
X05309Y07707*
X05339*
X05279Y07746D02*
Y07687D01*
X05259Y07707*
X05239Y07687*
Y07746*
X05219Y07687D02*
Y07746D01*
X05199Y07726*
X05179Y07746*
Y07687*
X05669Y07795D02*
Y07845D01*
Y07825*
X05679*
X05659*
X05669*
Y07845*
X05659Y07855*
X05629Y07795D02*
X05609D01*
X05619*
Y07835*
X05629*
X05579Y07795D02*
X05559D01*
X05569*
Y07855*
X05579*
X05519Y07845D02*
Y07835D01*
X05529*
X05509*
X05519*
Y07805*
X05509Y07795*
X05449D02*
X05469D01*
X05479Y07805*
Y07825*
X05469Y07835*
X05449*
X05439Y07825*
Y07815*
X05479*
X05419Y07835D02*
Y07795D01*
Y07815*
X05409Y07825*
X05399Y07835*
X05389*
X05289Y07795D02*
Y07845D01*
Y07825*
X05299*
X05279*
X05289*
Y07845*
X05279Y07855*
X05239Y07795D02*
X05219D01*
X05209Y07805*
Y07825*
X05219Y07835*
X05239*
X05249Y07825*
Y07805*
X05239Y07795*
X05189Y07835D02*
Y07795D01*
Y07815*
X05179Y07825*
X05169Y07835*
X05159*
X05679Y07963D02*
Y07913D01*
X05669Y07903*
X05649*
X05639Y07913*
Y07963*
X05619Y07903D02*
X05589D01*
X05579Y07913*
X05589Y07923*
X05609*
X05619Y07933*
X05609Y07943*
X05579*
X05529Y07903D02*
X05549D01*
X05559Y07913*
Y07933*
X05549Y07943*
X05529*
X05519Y07933*
Y07923*
X05559*
X05429Y07943D02*
X05409D01*
X05399Y07933*
Y07903*
X05429*
X05439Y07913*
X05429Y07923*
X05399*
X06988Y07648D02*
Y07588D01*
X06958*
X06948Y07598*
Y07608*
Y07618*
X06958Y07628*
X06988*
X06928Y07588D02*
X06908D01*
X06918*
Y07628*
X06928*
X06868Y07638D02*
Y07628D01*
X06878*
X06858*
X06868*
Y07598*
X06858Y07588*
X06828D02*
Y07598D01*
X06818*
Y07588*
X06828*
X06778D02*
X06758D01*
X06768*
Y07648*
X06778*
X06728Y07628D02*
Y07598D01*
X06718Y07588*
X06688*
Y07578*
X06698Y07568*
X06708*
X06688Y07588D02*
Y07628D01*
X06668Y07588D02*
X06628Y07628D01*
X06608Y07588D02*
X06588D01*
X06598*
Y07648*
X06608Y07638*
X06558Y07648D02*
X06538D01*
X06548*
Y07588*
X06558*
X06538*
X06468Y07628D02*
X06498D01*
X06508Y07618*
Y07598*
X06498Y07588*
X06468*
X06448D02*
Y07648D01*
X06408Y07588*
Y07648*
X06388Y07588D02*
X06368D01*
X06378*
Y07628*
X06388*
X06338Y07588D02*
Y07628D01*
X06318Y07648*
X06298Y07628*
Y07588*
Y07618*
X06338*
X06238Y07638D02*
X06248Y07648D01*
X06268*
X06278Y07638*
Y07598*
X06268Y07588*
X06248*
X06238Y07598*
Y07618*
X06258*
X06988Y07756D02*
X06978Y07766D01*
X06958*
X06948Y07756*
Y07746*
X06958Y07736*
X06948Y07726*
Y07716*
X06958Y07706*
X06978*
X06988Y07716*
Y07726*
X06978Y07736*
X06988Y07746*
Y07756*
X06978Y07736D02*
X06958D01*
X06928Y07766D02*
Y07706D01*
X06898*
X06888Y07716*
Y07726*
Y07736*
X06898Y07746*
X06928*
X06868Y07706D02*
Y07716D01*
X06858*
Y07706*
X06868*
X06818D02*
Y07766D01*
Y07726D02*
X06788Y07746D01*
X06818Y07726D02*
X06788Y07706D01*
X06758Y07746D02*
X06718D01*
X06758Y07706*
X06718*
X06698D02*
X06658Y07746D01*
X06638Y07766D02*
X06618D01*
X06628*
Y07706*
X06638*
X06618*
X06588Y07766D02*
Y07756D01*
X06568Y07736*
X06548Y07756*
Y07766*
X06568Y07736D02*
Y07706D01*
X06528Y07766D02*
X06488D01*
Y07756*
X06528Y07716*
Y07706*
X06488*
X06468Y07766D02*
Y07756D01*
X06448Y07736*
X06428Y07756*
Y07766*
X06448Y07736D02*
Y07706D01*
X06909Y07933D02*
Y07874D01*
X06869*
X06849D02*
Y07933D01*
X06819*
X06809Y07924*
Y07904*
X06819Y07894*
X06849*
X06749Y07933D02*
X06789D01*
Y07904*
X06769*
X06789*
Y07874*
X06689D02*
X06729D01*
X06689Y07914*
Y07924*
X06699Y07933*
X06719*
X06729Y07924*
X06669D02*
X06659Y07933D01*
X06639*
X06629Y07924*
Y07884*
X06639Y07874*
X06659*
X06669Y07884*
Y07924*
X06609Y07933D02*
Y07874D01*
Y07894*
X06569Y07933*
X06599Y07904*
X06569Y07874*
X06549Y07933D02*
Y07874D01*
Y07904*
X06509*
Y07933*
Y07874*
X06489Y07914D02*
X06449D01*
X06489Y07874*
X06449*
M02*